<?xml version="1.0" encoding="UTF-8"?>
<svg width="387px" height="387px" viewBox="0 0 387 387" version="1.1" xmlns="http://www.w3.org/2000/svg" xmlns:xlink="http://www.w3.org/1999/xlink">
    <title>logo_dark</title>
    <g id="Page-1" stroke="none" stroke-width="1" fill="none" fill-rule="evenodd">
        <g id="logo_dark" transform="translate(-0.000000, -0.000000)">
            <g id="Group" transform="translate(2.000000, 0.000000)" fill="#000000" fill-rule="nonzero">
                <g id="Group">
                    <g transform="translate(125.000000, 148.000000)" id="kg-0">
                        <path d="M131.717009,5.78800675 C131.440753,4.40672366 131.302624,3.02544056 130.059469,1.92041409 C129.921341,1.78228578 129.092571,1.09164423 127.57316,0.539130993 C124.948722,-0.289638864 122.600541,0.401002684 121.771771,0.539130993 C110.168993,3.5779538 104.781989,6.75490492 104.781989,6.75490492 C99.3949848,9.79372773 92.4885693,13.937577 84.4771274,21.534634 C80.1951498,25.540355 74.6700174,31.4798723 69.4211416,39.4913143 C69.2830133,38.6625444 69.2830133,37.9719028 69.144885,37.2812613 C70.2499115,36.4524914 70.9405531,35.0712084 70.9405531,33.5517969 C70.9405531,32.0323855 70.1117832,30.5129741 69.0067567,29.6842043 C69.6973983,17.5289131 77.4325836,7.72180308 87.1015653,6.4786483 C87.3778219,7.30741816 88.2065917,7.72180308 89.0353616,7.72180308 C90.1403881,7.72180308 91.1072862,6.75490492 91.1072862,5.64987844 C91.1072862,4.54485197 90.1403881,3.5779538 89.0353616,3.5779538 C88.0684634,3.5779538 87.2396936,4.26859535 86.9634369,5.0973652 C76.741942,6.34051999 68.5923718,16.2857583 67.6254736,28.9935627 C67.2110887,28.8554344 66.6585755,28.7173061 66.1060622,28.7173061 C65.553549,28.7173061 65.1391641,28.8554344 64.5866508,28.9935627 C63.6197527,16.4238866 55.4701824,6.34051999 45.2486875,5.0973652 C44.9724309,4.26859535 44.143661,3.5779538 43.1767629,3.5779538 C42.0717364,3.5779538 41.1048382,4.54485197 41.1048382,5.64987844 C41.1048382,6.75490492 42.0717364,7.72180308 43.1767629,7.72180308 C44.0055327,7.72180308 44.8343026,7.16928985 45.1105592,6.4786483 C54.7795408,7.58367477 62.5147262,17.3907847 63.2053677,29.546076 C61.9622129,30.3748458 61.2715714,31.7561289 61.2715714,33.4136686 C61.2715714,34.93308 61.9622129,36.3143631 63.0672394,37.143133 C62.9291111,37.9719028 62.7909828,38.8006727 62.7909828,39.7675709 C57.4039787,31.6180006 51.8788463,25.540355 47.4587404,21.3965057 C39.4472985,13.7994487 32.540883,9.79372773 27.153879,6.61677661 C27.153879,6.61677661 21.7668749,3.43982549 10.1640969,0.401002684 C9.47345535,0.262874374 6.98714578,-0.427767173 4.3627079,0.401002684 C2.70516819,0.953515921 2.01452664,1.64415747 1.87639833,1.78228578 C0.771371859,2.88731225 0.49511524,4.40672366 0.218858621,5.64987844 C0.0807303119,6.34051999 -0.195526307,7.9980597 0.218858621,9.79372773 C1.04762848,13.6613204 3.53393805,14.3519619 6.43463255,20.1533509 C6.98714578,21.2583774 7.40153071,22.2252756 7.53965902,22.6396605 C8.92094212,25.8166116 9.33532704,28.1647929 9.61158366,29.2698194 C11.1309951,36.8668764 11.9597649,41.5632389 15.551101,44.74019 C15.8273576,45.0164466 16.6561274,45.7070882 17.8992822,46.3977297 C23.2862863,49.4365525 28.6732904,47.5027562 28.949547,48.4696544 C29.2258036,49.2984242 24.8056977,50.1271941 20.3855918,54.2710434 C17.7611539,56.7573529 16.7942558,58.9674059 16.5179991,59.5199191 C15.2748443,62.2824853 15.4129727,64.7687949 15.4129727,65.735693 C15.4129727,66.2882063 15.551101,68.6363875 16.5179991,71.537082 C17.7611539,74.7140332 19.5568219,76.6478295 20.938105,78.1672409 C22.3193881,79.6866523 23.4244146,80.5154222 25.3582109,82.0348336 C30.0545735,85.7642979 33.7840378,87.6980942 35.7178341,88.6649924 C38.342272,89.9081472 39.7235551,90.5987887 41.5192231,90.7369171 C45.1105592,91.0131737 47.7349971,89.355634 48.4256386,88.941249 C51.0500765,87.2837093 50.9119482,85.7642979 54.2270276,80.9298071 C57.6802353,75.8190596 59.0615184,75.6809313 61.4096997,71.537082 C62.1003412,70.2939273 62.6528545,69.0507725 63.0672394,67.8076177 C63.757881,74.5759048 65.0010357,79.1341391 66.3823188,79.1341391 C67.7636019,79.1341391 68.8686284,74.8521615 69.55927,68.3601309 C69.9736549,69.3270291 70.3880398,70.4320556 71.0786814,71.537082 C73.4268626,75.6809313 74.6700174,75.8190596 78.2613535,80.9298071 C81.5764329,85.7642979 81.4383046,87.2837093 84.0627424,88.941249 C84.753384,89.355634 87.3778219,91.0131737 90.9691579,90.7369171 C92.7648259,90.5987887 94.146109,89.9081472 96.7705469,88.6649924 C98.7043432,87.6980942 102.433808,85.7642979 107.13017,82.0348336 C109.063966,80.5154222 110.168993,79.6866523 111.550276,78.1672409 C112.931559,76.6478295 114.727227,74.5759048 115.970382,71.537082 C117.075408,68.7745159 117.075408,66.4263346 117.075408,65.735693 C117.075408,64.7687949 117.075408,62.2824853 115.970382,59.5199191 C115.694125,58.9674059 114.727227,56.7573529 112.102789,54.2710434 C107.682683,50.1271941 103.400706,49.2984242 103.538834,48.4696544 C103.815091,47.5027562 109.202095,49.4365525 114.589099,46.3977297 C115.832254,45.7070882 116.661023,45.0164466 116.93728,44.74019 C120.528616,41.5632389 121.495514,37.0050047 122.876797,29.2698194 C123.153054,28.1647929 123.567439,25.8166116 124.672465,22.7777888 C124.810594,22.3634039 125.224979,21.3965057 125.777492,20.2914792 C128.678186,14.4900902 131.164496,13.7994487 131.993266,9.93185603 C131.993266,8.13618801 131.717009,6.4786483 131.717009,5.78800675 Z" id="Path"></path>
                    </g>
                    <g>
                        <polygon id="Path" points="20.785548 125.074347 25.3299694 126.573039 20.9775464 139.765674 34.8649666 144.346009 32.9878029 150.039657 0.21409888 139.229736 7.08183842 118.405512 11.666317 119.918017 6.67712248 135.048592 16.433125 138.266982"></polygon>
                        <polygon id="Path" points="12.1608164 103.10642 45.0947492 118.633424 42.6402091 123.83948 9.7062763 108.313858"></polygon>
                        <path d="M57.4489452,98.8506872 L55.2527051,97.6075324 C56.0206985,100.109036 55.5634938,102.669935 53.8797097,105.290229 L53.8797097,105.290229 C52.3727298,107.634266 50.5480548,108.965823 48.4029222,109.283518 C46.2619334,109.613645 43.8916516,108.943723 41.2948394,107.275133 L41.2948394,107.275133 L27.3231609,98.2967927 L30.4420981,93.4429639 L44.3557627,102.382628 C47.0948471,104.142383 49.1943974,103.886845 50.6557949,101.613253 L50.6557949,101.613253 C52.1669186,99.2609283 52.3423416,97.1309898 51.1793012,95.2248191 L51.1793012,95.2248191 L35.6923552,85.2726744 L38.8126737,80.4174643 L60.385553,94.2814027 L57.4489452,98.8506872 Z" id="Path"></path>
                        <path d="M42.0241569,66.8795087 L45.8364982,62.5478049 L50.5162853,66.6681724 L53.5012381,63.2771224 L56.7030523,66.0949399 L53.7180995,69.4859899 L64.4617194,78.9436353 C65.2007059,79.5942196 65.8595779,79.9188211 66.4383356,79.9146773 C67.0170932,79.9105334 67.6345267,79.5362057 68.2906362,78.7889316 L68.2906362,78.7889316 C68.7312655,78.2889071 69.1138809,77.73225 69.441245,77.1203416 L69.441245,77.1203416 L72.7908565,80.0679997 C72.2038112,81.289054 71.5076445,82.3567858 70.7009752,83.2725765 L70.7009752,83.2725765 C67.7754176,86.5973249 64.4769136,86.6442885 60.8068444,83.4134674 L60.8068444,83.4134674 L49.9043769,73.8176937 L47.1155663,76.9863571 L43.9137521,74.1685396 L46.703944,70.9998762 L42.0241569,66.8795087 Z" id="Path"></path>
                        <path d="M56.6657577,51.5072092 L60.9242534,47.6133721 L65.1316417,52.2158074 L68.4660591,49.1659343 L71.3432718,52.3138785 L68.0088544,55.3623703 L77.6681671,65.9264234 C78.3325643,66.6529783 78.9527604,67.046644 79.5273742,67.1046579 C80.1019879,67.164053 80.7567161,66.8574082 81.4915587,66.1874859 L81.4915587,66.1874859 C81.9832955,65.7385689 82.4239248,65.2261129 82.8148279,64.6528804 L82.8148279,64.6528804 L85.8260251,67.944478 C85.1105204,69.0950868 84.3024698,70.0813229 83.4018732,70.9045677 L83.4018732,70.9045677 C80.1337574,73.8936643 76.8504475,73.5828756 73.5519435,69.9763454 L73.5519435,69.9763454 L63.7503587,59.2562073 L60.634184,62.1057943 L57.7569713,58.9578502 L60.873146,56.1096444 L56.6657577,51.5072092 Z" id="Path"></path>
                        <path d="M99.887487,58.5255086 L99.887487,58.5268899 C96.8956278,60.6181525 93.8112226,61.372333 90.6328902,60.7880503 C87.4628455,60.1996237 84.7803938,58.3362728 82.5869162,55.1979976 L82.5869162,55.1979976 L82.1752938,54.609571 C80.7138963,52.5183084 79.8077746,50.3635068 79.4610726,48.1451661 C79.1129892,45.9268255 79.3533325,43.8479944 80.1821023,41.9059104 C80.9984407,39.9610638 82.3065157,38.3601567 84.1063276,37.1018078 L84.1063276,37.1018078 C86.9669649,35.1017099 89.8151706,34.4677009 92.6495636,35.199781 C95.4894816,35.9387674 98.0766248,37.9775413 100.409612,41.3161025 L100.409612,41.3161025 L101.739788,43.2195106 L88.0015459,52.8221907 C89.3621098,54.4576299 90.905003,55.4286719 92.6288443,55.7339354 C94.3485418,56.0322926 95.9812184,55.6400082 97.5268742,54.5598448 L97.5268742,54.5598448 C99.6885822,53.0487211 100.839191,50.9450269 100.980082,48.2487623 L100.980082,48.2487623 L105.223384,48.8896777 C105.253772,50.7350719 104.808999,52.4989704 103.890445,54.1827545 C102.974655,55.8527258 101.640335,57.3016917 99.887487,58.5255086 L99.887487,58.5255086 Z M86.7266216,40.9017176 L86.7266216,40.9017176 C85.435122,41.8050767 84.7058045,42.9902176 84.5414318,44.4571403 C84.3839655,45.9185378 84.7596745,47.5387828 85.6713214,49.3164942 L85.6713214,49.3164942 L94.6689994,43.0275123 L94.4189872,42.6697599 C93.2172709,41.1627801 91.9644471,40.2635648 90.6618972,39.972114 C89.3538221,39.6723756 88.0416032,39.9831643 86.7280029,40.9017176 L86.7266216,40.9017176 Z" id="Shape"></path>
                        <path d="M113.443399,20.5678491 L115.874458,25.3954336 C115.138234,25.6233453 114.410297,25.9217024 113.69203,26.2877424 L113.69203,26.2877424 C111.343849,27.4866962 110.220866,29.1967246 110.321699,31.4205904 L110.321699,31.4205904 L118.294465,47.0401396 L113.167143,49.6576711 L101.509113,26.8167739 L106.411287,24.3152702 L107.83539,26.7960546 C108.06192,24.1840483 109.273306,22.3165535 111.472308,21.1949517 L111.472308,21.1949517 C112.198863,20.8233865 112.856354,20.6148128 113.443399,20.5678491 L113.443399,20.5678491 Z" id="Path"></path>
                        <path d="M164.824368,32.3902511 L160.308953,25.1716657 L147.266878,28.1165612 L146.304124,36.5727764 L140.222335,37.9457717 L145.348276,1.40945262 L150.591627,0.225693006 L170.933783,31.0117306 L164.824368,32.3902511 Z M149.568096,7.95949705 L147.847017,23.0223892 L157.594732,20.8206239 L149.568096,7.95949705 Z" id="Shape"></path>
                        <path d="M189.104562,23.0859282 L189.104562,23.0859282 C189.050692,22.055491 188.589343,21.294404 187.717754,20.8040485 C186.846164,20.313693 185.422061,19.9131209 183.442683,19.600951 C181.463304,19.2901623 179.800239,18.8550581 178.456251,18.2942572 L178.456251,18.2942572 C175.51688,17.0552462 173.979512,15.1159248 173.842765,12.4735302 L173.842765,12.4735302 C173.7295,10.271765 174.565176,8.37664455 176.352557,6.79093155 C178.131649,5.21488754 180.459111,4.35158561 183.336324,4.20240703 L183.336324,4.20240703 C186.40001,4.04355948 188.913945,4.67480585 190.875367,6.09614616 C192.836789,7.50781748 193.879658,9.42227585 194.005354,11.8395213 L194.005354,11.8395213 L188.256454,12.1364971 C188.199822,11.0314707 187.739854,10.1336366 186.876552,9.44575766 C186.022919,8.7482097 184.916512,8.43327715 183.55871,8.50372259 L183.55871,8.50372259 C182.293455,8.5686429 181.278212,8.91810752 180.512981,9.54935389 C179.746369,10.1709313 179.388617,10.974838 179.438343,11.9583116 L179.438343,11.9583116 C179.483925,12.8395702 179.890023,13.5039674 180.655253,13.9528844 C181.420484,14.4018014 182.945421,14.8161863 185.230063,15.1960392 C187.513324,15.575892 189.315898,16.0786791 190.635024,16.7057816 C191.963818,17.3232151 192.962486,18.098115 193.629645,19.0318623 C194.306474,19.9545594 194.680802,21.1051683 194.752629,22.4836888 L194.752629,22.4836888 C194.871419,24.7890503 194.012261,26.7035086 192.175154,28.2256826 C190.338048,29.7589068 187.872458,30.6042521 184.781146,30.7644809 L184.781146,30.7644809 C182.681596,30.8736023 180.793382,30.5904393 179.113741,29.9163731 C177.434101,29.242307 176.101163,28.2685024 175.114927,26.9935781 C174.127309,25.7103661 173.594134,24.3056012 173.515401,22.7779021 L173.515401,22.7779021 L179.109598,22.4892139 C179.254632,23.8442526 179.819577,24.8622583 180.804432,25.5446121 C181.789287,26.226966 183.06283,26.5267044 184.627824,26.4452087 L184.627824,26.4452087 C186.145854,26.3664756 187.284031,26.0211548 188.040974,25.4092464 C188.797917,24.787669 189.152907,24.0127692 189.104562,23.0859282 Z" id="Path"></path>
                        <path d="M216.162517,24.8912652 L216.162517,24.8912652 C216.273019,23.8649719 215.935986,23.0417272 215.152799,22.4201498 C214.369611,21.7985724 213.025623,21.1783763 211.119452,20.5581802 C209.213281,19.9393653 207.641381,19.2473368 206.40237,18.4821117 L206.40237,18.4821117 C203.695055,16.795565 202.482289,14.6366195 202.764071,12.0066565 L202.764071,12.0066565 C202.998889,9.81456025 204.123253,8.07552483 206.138545,6.79093155 C208.144168,5.51462597 210.577989,5.02979561 213.44277,5.33644046 L213.44277,5.33644046 C216.494025,5.66242327 218.875357,6.68181019 220.589529,8.39460123 C222.303701,10.0977233 223.033019,12.1516912 222.774719,14.5592677 L222.774719,14.5592677 L217.050682,13.945978 C217.168091,12.8450954 216.855921,11.8864849 216.11279,11.0715279 C215.379329,10.2482831 214.337842,9.76345277 212.984184,9.61841805 L212.984184,9.61841805 C211.724454,9.4830523 210.666391,9.66814424 209.811377,10.1709313 C208.956363,10.6640494 208.477057,11.4016545 208.370699,12.379603 L208.370699,12.379603 C208.276771,13.2567177 208.572366,13.9777475 209.258864,14.541311 C209.94398,15.1048745 211.384658,15.7554588 213.579517,16.4903014 C215.774376,17.225144 217.474736,18.0069503 218.679214,18.8343389 C219.893362,19.6534397 220.758045,20.5761368 221.270501,21.6024302 C221.794008,22.6204358 221.981862,23.816627 221.835446,25.1868598 L221.835446,25.1868598 C221.589578,27.4825523 220.438969,29.2367818 218.38362,30.452311 C216.328271,31.6761278 213.760465,32.1236635 210.681585,31.7935368 L210.681585,31.7935368 C208.591704,31.569769 206.771173,30.9923926 205.218611,30.0614078 C203.66743,29.130423 202.504389,27.959095 201.730871,26.5460424 C200.958734,25.1233208 200.65347,23.6522543 200.816461,22.1314616 L200.816461,22.1314616 L206.385795,22.7267946 C206.315349,24.0873585 206.713159,25.182716 207.577842,26.0114858 C208.442525,26.8402557 209.653911,27.3375176 211.211998,27.5046528 L211.211998,27.5046528 C212.723122,27.666263 213.901356,27.5046528 214.74532,27.0184412 C215.590665,26.5239418 216.063064,25.8153436 216.162517,24.8912652 L216.162517,24.8912652 Z" id="Path"></path>
                        <path d="M239.104247,10.2648585 L233.417505,35.2702264 L227.80397,33.9939208 L233.490713,8.98855296 L239.104247,10.2648585 Z M234.627509,2.40535773 L234.627509,2.40535773 C234.823651,1.54481836 235.255993,0.892852741 235.923153,0.448079585 C236.602744,-0.00359998733 237.450852,-0.114102635 238.467476,0.117952925 C239.482719,0.348627202 240.203749,0.815500888 240.630565,1.51857398 C241.060144,2.21335938 241.176172,2.98964048 240.981411,3.85017985 L240.981411,3.85017985 C240.788032,4.70105023 240.348784,5.34196559 239.663667,5.7743072 C238.977169,6.2149365 238.124918,6.31991402 237.109675,6.08785846 C236.094432,5.85718418 235.376164,5.39583563 234.956254,4.70243152 C234.543251,4.02145895 234.434129,3.25622812 234.627509,2.40535773 Z" id="Shape"></path>
                        <path d="M244.260577,25.0487315 L244.260577,25.0487315 C245.648767,21.3206484 247.636433,18.6658223 250.22772,17.088397 C252.805194,15.5151156 255.54566,15.2678659 258.447736,16.3480293 L258.447736,16.3480293 C261.190964,17.3687975 262.99492,19.1271709 263.858222,21.6203869 L263.858222,21.6203869 L264.993637,19.2956874 L269.861278,21.1065495 L261.192345,44.4005076 C260.016874,47.5567395 258.110703,49.6811529 255.471071,50.7723666 C252.83282,51.8621989 249.846486,51.7876096 246.514831,50.5472174 L246.514831,50.5472174 C244.746789,49.8897267 243.159695,48.8827713 241.752167,47.5277326 C240.34464,46.1726939 239.421943,44.7375407 238.984076,43.2236545 L238.984076,43.2236545 L242.749454,40.9307245 C243.677676,43.519249 245.355935,45.2651909 247.78423,46.16855 L247.78423,46.16855 C249.578517,46.8357097 251.173899,46.8799108 252.571758,46.2983906 C253.972379,45.7085827 255.022154,44.4764782 255.718321,42.6034583 L255.718321,42.6034583 L256.321941,40.981832 C254.120176,42.1352034 251.72365,42.2291306 249.1296,41.2636137 L249.1296,41.2636137 C246.315927,40.2166012 244.433238,38.2386038 243.482915,35.3323841 C242.528448,32.4344522 242.788129,29.0074888 244.260577,25.0487315 L244.260577,25.0487315 Z M249.465252,27.5267534 L249.465252,27.5267534 C248.568799,29.9357111 248.3547,32.018686 248.822955,33.7756781 C249.293973,35.5230012 250.400381,36.7205736 252.140797,37.3683954 L252.140797,37.3683954 C254.321843,38.1805899 256.286028,37.8504632 258.036114,36.3780154 L258.036114,36.3780154 L261.97277,25.8001495 C261.621924,23.597003 260.359432,22.0914044 258.188055,21.2819725 L258.188055,21.2819725 C256.411725,20.6203379 254.769379,20.810955 253.261018,21.8510611 C251.752657,22.8911673 250.487401,24.7835251 249.465252,27.5267534 L249.465252,27.5267534 Z" id="Shape"></path>
                        <path d="M279.644906,26.1855275 L284.335744,28.8997488 L283.001424,31.5421433 C285.788854,30.5103248 288.518269,30.7672435 291.18967,32.3128993 L291.18967,32.3128993 C295.810062,34.9870634 296.629163,38.9955469 293.646973,44.3369686 L293.646973,44.3369686 L285.158988,59.0034325 L280.1767,56.1206947 L288.501693,41.7346313 C289.315269,40.3298664 289.613626,39.1101934 289.399528,38.0742311 C289.179903,37.0479377 288.380141,36.1349096 287.000239,35.336528 L287.000239,35.336528 C284.986328,34.170725 282.961367,34.2135448 280.926737,35.463606 L280.926737,35.463606 L271.782643,51.2627221 L266.800355,48.3799842 L279.644906,26.1855275 Z" id="Path"></path>
                        <path d="M307.124152,43.9957917 L311.14783,47.6451416 L309.465427,49.7308791 C312.211418,49.3841771 314.746072,50.2640544 317.068009,52.3691298 L317.068009,52.3691298 C319.605426,54.6703475 320.46044,57.2188148 319.633052,60.015913 L319.633052,60.015913 C322.780996,59.3238902 325.60572,60.1126028 328.107224,62.382051 L328.107224,62.382051 C330.206774,64.2854591 331.239974,66.2814131 331.209585,68.3685319 C331.184722,70.4487442 330.162573,72.6311715 328.140374,74.9158138 L328.140374,74.9158138 L316.813853,87.4039942 L312.549832,83.5377828 L323.763088,71.1725366 C324.854302,69.9708203 325.39024,68.8478371 325.372283,67.8063497 C325.354326,66.7648622 324.738274,65.6916053 323.522745,64.5893414 L323.522745,64.5893414 C322.550322,63.7067015 321.521266,63.2494968 320.435577,63.2149647 C319.344364,63.1749075 318.29597,63.4649769 317.290396,64.085173 L317.290396,64.085173 L305.481807,77.1258667 L301.217786,73.2596553 L312.553976,60.7590433 C314.52783,58.4702572 314.403514,56.3182182 312.179648,54.3015449 L312.179648,54.3015449 C310.46962,52.750364 308.624226,52.3497919 306.640703,53.097066 L306.640703,53.097066 L294.159429,66.8574082 L289.895408,62.9898155 L307.124152,43.9957917 Z" id="Path"></path>
                        <path d="M326.411008,102.0083 L326.411008,102.0083 C324.297645,99.0330166 323.521364,95.9527553 324.079402,92.7716603 C324.644347,89.5974718 326.48836,86.9012072 329.61006,84.6842478 L329.61006,84.6842478 L330.194342,84.2684816 C332.274555,82.7905087 334.423831,81.8691929 336.639409,81.5059154 C338.854987,81.1412567 340.936581,81.3664058 342.88419,82.1799816 C344.834562,82.9811258 346.445138,84.2781506 347.715918,86.0682935 L347.715918,86.0682935 C349.736736,88.9137366 350.391464,91.7577985 349.681484,94.5977166 C348.963217,97.4431598 346.943781,100.045497 343.624558,102.403347 L343.624558,102.403347 L341.730819,103.747336 L332.025924,90.0809209 C330.400154,91.4539163 329.441543,93.0037159 329.148711,94.7303198 C328.864167,96.4513985 329.267501,98.0813125 330.358715,99.6200619 L330.358715,99.6200619 C331.885033,101.769338 333.997015,102.904753 336.696042,103.024925 L336.696042,103.024925 L336.086896,107.27237 C334.242883,107.316571 332.474841,106.885611 330.78415,105.980871 C329.107273,105.077511 327.648638,103.754242 326.411008,102.0083 L326.411008,102.0083 Z M343.935347,88.7175944 L343.935347,88.7175944 C343.022319,87.4330012 341.833034,86.7119714 340.36473,86.558649 C338.901951,86.412233 337.28585,86.8003735 335.513664,87.7244519 L335.513664,87.7244519 L341.870328,96.6751664 L342.225318,96.4223915 C343.722629,95.209625 344.612175,93.9498948 344.895338,92.6459636 C345.185408,91.3351259 344.86495,90.0270508 343.935347,88.7175944 Z" id="Shape"></path>
                        <path d="M358.169469,103.613351 L360.561851,108.474087 L357.984377,109.93134 C360.875403,110.6206 363.002578,112.349967 364.365905,115.11944 L364.365905,115.11944 C366.723755,119.909729 365.178099,123.697208 359.7317,126.483256 L359.7317,126.483256 L344.527917,133.967047 L341.986356,128.80243 L356.898688,121.462291 C358.354561,120.745406 359.281402,119.897298 359.67783,118.917968 C360.065971,117.942782 359.907123,116.739685 359.20405,115.307294 L359.20405,115.307294 C358.176375,113.220175 356.469109,112.130343 354.082252,112.040559 L354.082252,112.040559 L337.702997,120.101728 L335.161436,114.93711 L358.169469,103.613351 Z" id="Path"></path>
                        <path d="M377.4729,132.396528 L379.214698,137.898179 L373.269656,139.779487 L374.632982,144.086327 L370.566485,145.373683 L369.20454,141.065461 L355.557463,145.384733 C354.61819,145.681709 354.000757,146.079519 353.705162,146.575399 C353.409567,147.072661 353.41233,147.795072 353.712068,148.744014 L353.712068,148.744014 C353.913736,149.379404 354.191374,149.994075 354.547745,150.590789 L354.547745,150.590789 L350.293393,151.936159 C349.551644,150.803507 348.996368,149.655661 348.627565,148.49262 L348.627565,148.49262 C347.291865,144.270038 348.953548,141.421832 353.615379,139.946622 L353.615379,139.946622 L367.462742,135.563811 L366.189199,131.538752 L370.254315,130.251396 L371.529239,134.277836 L377.4729,132.396528 Z" id="Path"></path>
                        <polygon id="Path" points="33.2903039 261.728827 28.7458825 263.227519 24.3948407 250.036266 10.5074205 254.6166 8.62887549 248.92157 41.4025795 238.11303 48.2717003 258.937254 43.6872217 260.448378 38.6966459 245.317803 28.9392621 248.536192"></polygon>
                        <polygon id="Path" points="54.8286511 267.705639 21.8947183 283.232642 19.4401783 278.025205 52.3741111 262.499583"></polygon>
                        <path d="M35.8705407,305.942318 L37.9134584,304.461582 C35.3194087,304.121787 33.1798012,302.641051 31.4960171,300.020757 L31.4960171,300.020757 C29.9890373,297.67672 29.5373577,295.462523 30.1409784,293.380929 C30.7307863,291.295192 32.3234057,289.418028 34.9202179,287.749438 L34.9202179,287.749438 L48.8918964,278.771098 L52.0108336,283.624927 L38.0985503,292.565972 C35.3594659,294.325727 34.7199319,296.3424 36.1813294,298.615992 L36.1813294,298.615992 C37.6924531,300.968317 39.5571853,302.012567 41.7741446,301.747361 L41.7741446,301.747361 L57.2610907,291.795216 L60.3814092,296.650426 L38.8071485,310.512983 L35.8705407,305.942318 Z" id="Path"></path>
                        <path d="M70.6291485,298.868767 L74.4414898,303.200471 L69.7617027,307.320838 L72.7466554,310.711888 L69.5448412,313.529706 L66.5598885,310.138656 L55.8162686,319.59492 C55.0772821,320.245504 54.6725662,320.858794 54.6021207,321.433408 C54.5316753,322.008021 54.8258886,322.668275 55.4833793,323.414168 L55.4833793,323.414168 C55.9240086,323.914192 56.4267957,324.36449 56.9917405,324.766444 L56.9917405,324.766444 L53.6435103,327.714102 C52.5067143,326.976497 51.5356722,326.150489 50.7303842,325.234699 L50.7303842,325.234699 C47.8048266,321.90995 48.1763918,318.633547 51.8450797,315.402726 L51.8450797,315.402726 L62.7475471,305.806952 L59.9573553,302.636907 L63.1591695,299.81909 L65.9479801,302.989134 L70.6291485,298.868767 Z" id="Path"></path>
                        <path d="M82.3797237,311.296171 L86.6382195,315.190008 L82.4322125,319.791062 L85.7652486,322.839554 L82.8880359,325.987498 L79.5536185,322.939006 L69.8956871,333.503059 C69.23129,334.229614 68.8942569,334.882961 68.8873505,335.460337 C68.8804441,336.039095 69.2437215,336.663435 69.9771828,337.334739 L69.9771828,337.334739 C70.4689196,337.783656 71.017289,338.178703 71.6236723,338.515736 L71.6236723,338.515736 L68.6138564,341.808715 C67.4038524,341.198187 66.3499334,340.482683 65.4493369,339.658057 L65.4493369,339.658057 C62.1812211,336.66896 62.1964152,333.371837 65.4935379,329.763926 L65.4935379,329.763926 L75.2951228,319.045169 L72.1789481,316.195582 L75.0561608,313.049019 L78.1723354,315.897225 L82.3797237,311.296171 Z" id="Path"></path>
                        <path d="M84.645028,354.208493 L84.645028,354.208493 C81.6531688,352.11723 79.8851265,349.47898 79.3409009,346.295122 C78.8049631,343.115408 79.6323517,339.956414 81.8258292,336.81952 L81.8258292,336.81952 L82.2374516,336.231093 C83.6988491,334.139831 85.4116401,332.548593 87.3758247,331.45876 C89.338628,330.370309 91.3746393,329.881335 93.4824773,329.993219 C95.588934,330.09129 97.5420683,330.7695 99.3418801,332.027849 L99.3418801,332.027849 C102.202517,334.027947 103.77718,336.483868 104.064487,339.396994 C104.346269,342.318408 103.321357,345.448395 100.986988,348.786957 L100.986988,348.786957 L99.6568127,350.690365 L85.9171898,341.086303 C84.8480766,342.926173 84.4668425,344.709409 84.7734873,346.434632 C85.084276,348.151567 86.0124983,349.550806 87.5581541,350.63097 L87.5581541,350.63097 C89.7198621,352.142093 92.0901439,352.499846 94.671762,351.704227 L94.671762,351.704227 L95.5281575,355.908852 C93.8056975,356.570487 91.9962166,356.759723 90.099715,356.47656 C88.2156448,356.190634 86.3978763,355.435072 84.645028,354.208493 L84.645028,354.208493 Z M96.6732412,335.794608 L96.6732412,335.794608 C95.3817415,334.891249 94.0184151,334.613611 92.5846432,334.963076 C91.1577778,335.316684 89.7668257,336.22695 88.4090245,337.693872 L88.4090245,337.693872 L97.4067025,343.982854 L97.6567148,343.625102 C98.658145,341.978612 99.0725299,340.493733 98.8998696,339.170464 C98.731353,337.838907 97.989604,336.714542 96.6732412,335.794608 L96.6732412,335.794608 Z" id="Shape"></path>
                        <path d="M125.225744,347.27307 L122.743578,352.07441 C122.126145,351.611681 121.458985,351.197296 120.739337,350.829874 L120.739337,350.829874 C118.391155,349.630921 116.346856,349.726229 114.60644,351.113037 L114.60644,351.113037 L106.635055,366.732587 L101.507732,364.116437 L113.16438,341.275539 L118.065172,343.777043 L116.892463,346.386287 C119.139811,345.036773 121.363677,344.923508 123.561298,346.043729 L123.561298,346.043729 C124.287853,346.415294 124.843129,346.824153 125.225744,347.27307 L125.225744,347.27307 Z" id="Path"></path>
                        <path d="M159.17492,383.556615 L158.199734,375.097637 L145.157659,372.152742 L140.654676,379.37409 L134.572887,378.001094 L154.90123,347.212294 L160.144581,348.396054 L165.284335,384.936517 L159.17492,383.556615 Z M155.897135,354.940573 L147.870499,367.8017 L157.618214,370.002084 L155.897135,354.940573 Z" id="Shape"></path>
                        <path d="M188.49956,379.542606 L188.49956,379.542606 C188.55343,378.512169 188.172196,377.708262 187.355858,377.129505 C186.539519,376.552128 185.163761,376.006521 183.227202,375.492684 C181.290644,374.978847 179.681449,374.373845 178.402381,373.679059 L178.402381,373.679059 C175.606664,372.144454 174.277869,370.054573 174.413235,367.412178 L174.413235,367.412178 C174.5265,365.210413 175.555556,363.411982 177.49764,362.019649 C179.430055,360.635603 181.833488,360.016788 184.710701,360.165967 L184.710701,360.165967 C187.774386,360.324814 190.209589,361.211598 192.013544,362.826318 C193.818881,364.43275 194.658701,366.443899 194.534386,368.861144 L194.534386,368.861144 L188.785486,368.564168 C188.842118,367.459142 188.47746,366.518488 187.691509,365.744969 C186.915228,364.963163 185.846115,364.536347 184.486933,364.465901 L184.486933,364.465901 C183.221677,364.400981 182.176046,364.642705 181.350039,365.192456 C180.524031,365.732538 180.084783,366.493625 180.033676,367.477098 L180.033676,367.477098 C179.988094,368.358357 180.322364,369.06143 181.037869,369.587699 C181.753373,370.112586 183.227202,370.683056 185.459356,371.294965 C187.691509,371.908254 189.431926,372.594752 190.679225,373.355839 C191.937574,374.107257 192.850602,374.980228 193.41969,375.977514 C193.998448,376.965132 194.251223,378.148891 194.179396,379.526031 L194.179396,379.526031 C194.060606,381.831392 193.008068,383.646398 191.023164,384.97243 C189.036879,386.306749 186.498081,386.895176 183.406769,386.733566 L183.406769,386.733566 C181.307219,386.624445 179.457681,386.149283 177.856774,385.305319 C176.255867,384.461355 175.030669,383.354947 174.181179,381.986096 C173.33169,380.607575 172.946312,379.155847 173.025046,377.628148 L173.025046,377.628148 L178.619242,377.918217 C178.623386,379.280162 179.080591,380.352038 179.989475,381.131082 C180.898359,381.911507 182.134608,382.341086 183.699601,382.422581 L183.699601,382.422581 C185.217631,382.501314 186.384816,382.274784 187.201154,381.744371 C188.018874,381.20429 188.451215,380.470828 188.49956,379.542606 L188.49956,379.542606 Z" id="Path"></path>
                        <path d="M217.408434,377.68478 L217.408434,377.68478 C217.297931,376.658487 216.795144,375.925026 215.898691,375.483015 C215.002239,375.041005 213.557417,374.719166 211.564225,374.517498 C209.571034,374.315831 207.88725,373.971891 206.512873,373.487061 L206.512873,373.487061 C203.509963,372.412423 201.867618,370.558741 201.587217,367.927397 L201.587217,367.927397 C201.352399,365.7353 202.084479,363.79736 203.782076,362.114957 C205.471385,360.443605 207.749121,359.454606 210.612521,359.147961 L210.612521,359.147961 C213.663775,358.821978 216.206718,359.313715 218.24411,360.624553 C220.280121,361.925722 221.426586,363.780785 221.684886,366.18698 L221.684886,366.18698 L215.960849,366.798888 C215.84344,365.698006 215.335128,364.827797 214.435913,364.188263 C213.544985,363.537679 212.423383,363.284904 211.071107,363.429939 L211.071107,363.429939 C209.811377,363.565305 208.816853,363.968639 208.086154,364.641324 C207.355456,365.30434 207.041904,366.126203 207.146882,367.105533 L207.146882,367.105533 C207.240809,367.982648 207.68282,368.623563 208.471532,369.031042 C209.260245,369.437139 210.805901,369.767266 213.107118,370.02004 C215.408336,370.274197 217.235774,370.677531 218.586668,371.231426 C219.947232,371.77427 220.985957,372.493918 221.705606,373.38899 C222.432161,374.274392 222.870027,375.401519 223.015062,376.773134 L223.015062,376.773134 C223.26093,379.068826 222.508131,381.026104 220.756664,382.649112 C219.006578,384.280407 216.592096,385.261118 213.513216,385.589863 L213.513216,385.589863 C211.423334,385.813631 209.521307,385.635446 207.808516,385.053926 C206.094344,384.472405 204.710298,383.57319 203.654998,382.35628 C202.598317,381.1297 201.989171,379.755324 201.826179,378.234531 L201.826179,378.234531 L207.396894,377.637817 C207.616518,378.983186 208.236714,379.968041 209.256101,380.596525 C210.276869,381.223628 211.565606,381.452921 213.123694,381.285785 L213.123694,381.285785 C214.634817,381.124175 215.752275,380.716697 216.474687,380.06335 C217.197098,379.401715 217.507886,378.607477 217.408434,377.68478 L217.408434,377.68478 Z" id="Path"></path>
                        <path d="M233.417505,355.662984 L239.105629,380.668352 L233.492094,381.944657 L227.805352,356.93929 L233.417505,355.662984 Z M225.982058,350.512179 L225.982058,350.512179 C225.785916,349.65164 225.893656,348.87674 226.305278,348.18748 C226.723807,347.485788 227.439312,347.020296 228.455936,346.789621 C229.471179,346.558947 230.323431,346.668068 231.012691,347.116985 C231.699189,347.557615 232.141199,348.206818 232.33596,349.067357 L232.33596,349.067357 C232.52934,349.918228 232.41055,350.686221 231.979589,351.371337 C231.55001,352.066123 230.827599,352.527471 229.813737,352.759527 C228.798494,352.990201 227.951768,352.885224 227.272176,352.441832 C226.605017,352.006728 226.175438,351.36305 225.982058,350.512179 L225.982058,350.512179 Z" id="Shape"></path>
                        <path d="M244.125212,365.514295 L244.125212,365.514295 C242.737022,361.786212 242.507729,358.478039 243.43457,355.589776 C244.355886,352.713945 246.268963,350.735947 249.171039,349.655784 L249.171039,349.655784 C251.914267,348.635016 254.428202,348.785575 256.712844,350.107463 L256.712844,350.107463 L256.05121,347.604578 L260.918851,345.793716 L269.587784,369.087674 C270.763256,372.243906 270.708005,375.097637 269.426174,377.648867 C268.142962,380.198716 265.834838,382.093836 262.501802,383.334228 L262.501802,383.334228 C260.733759,383.991719 258.874552,384.267976 256.922799,384.162998 C254.971046,384.058021 253.335607,383.575953 252.015101,382.716795 L252.015101,382.716795 L253.365995,378.519075 C255.76114,379.86997 258.171479,380.093738 260.598394,379.19176 L260.598394,379.19176 C262.39268,378.5246 263.627548,377.513501 264.305758,376.159844 C264.979824,374.797899 264.968773,373.180416 264.272607,371.306015 L264.272607,371.306015 L263.667605,369.684389 C262.755958,371.996657 261.00311,373.634858 258.40906,374.600375 L258.40906,374.600375 C255.595386,375.647388 252.878402,375.382181 250.25949,373.803375 C247.64334,372.234237 245.599041,369.471671 244.125212,365.514295 L244.125212,365.514295 Z M249.683495,363.986596 L249.683495,363.986596 C250.579947,366.395554 251.780282,368.112489 253.281737,369.134638 C254.780429,370.1485 256.400674,370.33221 258.141091,369.684389 L258.141091,369.684389 C260.322137,368.872194 261.592918,367.33897 261.954814,365.080572 L261.954814,365.080572 L258.018157,354.502706 C256.312272,353.06479 254.372951,352.751239 252.200192,353.557909 L252.200192,353.557909 C250.423862,354.219543 249.305023,355.436454 248.843675,357.210021 C248.382326,358.983589 248.662726,361.241986 249.683495,363.986596 L249.683495,363.986596 Z" id="Shape"></path>
                        <path d="M266.803117,342.551845 L271.493955,339.839005 L273.119725,342.311502 C273.612843,339.380419 275.195793,337.14274 277.868576,335.595703 L277.868576,335.595703 C282.488968,332.921539 286.373136,334.208895 289.518318,339.457771 L289.518318,339.457771 L298.006302,354.124235 L293.024014,357.006972 L284.69764,342.620909 C283.884064,341.216144 282.976561,340.348698 281.972368,340.018572 C280.973701,339.696733 279.783035,339.935695 278.403133,340.734076 L278.403133,340.734076 C276.389222,341.899879 275.416799,343.676209 275.487244,346.064448 L275.487244,346.064448 L284.629957,361.863564 L279.647669,364.747683 L266.803117,342.551845 Z" id="Path"></path>
                        <path d="M289.899552,327.942014 L293.92323,324.291282 L295.834925,326.168446 C295.757574,323.401736 296.879175,320.965153 299.199731,318.860077 L299.199731,318.860077 C301.737148,316.55886 304.356061,315.95662 307.060613,317.050596 L307.060613,317.050596 C306.677998,313.850163 307.738823,311.115223 310.240327,308.845775 L310.240327,308.845775 C312.339877,306.942367 314.425615,306.10669 316.500302,306.341509 C318.568083,306.568039 320.640007,307.798762 322.717457,310.032297 L322.717457,310.032297 L334.043978,322.521859 L329.781339,326.389451 L318.566701,314.025586 C317.475488,312.82387 316.4119,312.180192 315.373175,312.095934 C314.33445,312.011676 313.207323,312.521369 311.990413,313.625014 L311.990413,313.625014 C311.017989,314.507654 310.461332,315.486984 310.321823,316.563003 C310.175407,317.645929 310.363261,318.717805 310.882623,319.77863 L310.882623,319.77863 L322.713313,332.799986 L318.449292,336.667579 L307.111721,324.168348 C305.025983,321.980396 302.871182,321.896137 300.647316,323.912811 L300.647316,323.912811 C298.937287,325.463992 298.35853,327.262422 298.909662,329.308103 L298.909662,329.308103 L311.390936,343.068445 L307.126915,346.936037 L289.899552,327.942014 Z" id="Path"></path>
                        <path d="M348.102678,304.323454 L348.102678,304.323454 C345.989315,307.298738 343.338632,309.047442 340.150631,309.568186 C336.966773,310.080642 333.814685,309.229771 330.692986,307.012812 L330.692986,307.012812 L330.107322,306.597046 C328.027109,305.119073 326.448303,303.395232 325.375046,301.424141 C324.300407,299.45305 323.826627,297.412895 323.953705,295.305057 C324.068352,293.199981 324.760375,291.252372 326.032536,289.462229 L326.032536,289.462229 C328.053354,286.616786 330.521707,285.06008 333.437595,284.794874 C336.361771,284.535192 339.483471,285.583586 342.802695,287.941436 L342.802695,287.941436 L344.696434,289.285425 L334.991539,302.953221 C336.82312,304.036147 338.603594,304.429813 340.330198,304.136981 C342.049895,303.838624 343.45466,302.921452 344.545874,301.384083 L344.545874,301.384083 C346.072192,299.234807 346.447901,296.865906 345.674382,294.278763 L345.674382,294.278763 L349.884533,293.452756 C350.533736,295.17936 350.709159,296.990222 350.412183,298.885342 C350.112445,300.76665 349.34307,302.578893 348.102678,304.323454 L348.102678,304.323454 Z M329.779957,292.157112 L329.779957,292.157112 C328.866929,293.441706 328.579622,294.803651 328.916656,296.240185 C329.259214,297.669813 330.15981,299.067672 331.617064,300.436523 L331.617064,300.436523 L337.972348,291.485809 L337.617358,291.233034 C335.977775,290.219172 334.497039,289.793737 333.171007,289.956728 C331.838069,290.115576 330.70818,290.849037 329.779957,292.157112 Z" id="Shape"></path>
                        <path d="M335.16558,275.993338 L337.559344,271.131221 L340.285997,272.285974 C339.069086,269.574515 339.142294,266.834049 340.504239,264.063196 L340.504239,264.063196 C342.86209,259.272906 346.805653,258.187217 352.33631,260.804749 L352.33631,260.804749 L367.540093,268.287159 L364.998533,273.451777 L350.084819,266.111638 C348.628947,265.394752 347.391317,265.177891 346.373311,265.462435 C345.363593,265.749742 344.507198,266.6089 343.802743,268.03991 L343.802743,268.03991 C342.775069,270.127028 342.953254,272.145083 344.3373,274.091311 L344.3373,274.091311 L360.716555,282.152479 L358.173613,287.317096 L335.16558,275.993338 Z" id="Path"></path>
                        <path d="M341.141011,247.034738 L342.881428,241.533087 L348.82647,243.414395 L350.189796,239.106173 L354.254913,240.393528 L352.891586,244.700369 L366.538663,249.01826 C367.477936,249.315236 368.211397,249.345624 368.739047,249.109425 C369.266697,248.873225 369.681082,248.280655 369.980821,247.333095 L369.980821,247.333095 C370.182488,246.697705 370.308185,246.034689 370.359292,245.341285 L370.359292,245.341285 L374.613644,246.688036 C374.569443,248.041693 374.362251,249.300042 373.994829,250.463082 L373.994829,250.463082 C372.659129,254.685665 369.660363,256.05866 364.998533,254.584831 L364.998533,254.584831 L351.15117,250.20202 L349.877627,254.227079 L345.811129,252.941104 L347.084672,248.914664 L341.141011,247.034738 Z" id="Path"></path>
                        <path d="M-2.14694521e-15,195.464533 C-2.14694521e-15,187.781837 6.22820547,181.555012 13.9095208,181.553631 C21.5922173,181.553631 27.8190415,187.781837 27.8190415,195.464533 C27.8190415,203.14723 21.590836,209.374054 13.9095208,209.374054 C6.22682419,209.374054 -2.14694521e-15,203.145849 -2.14694521e-15,195.464533 Z" id="Path"></path>
                        <path d="M354.680348,195.464533 C354.680348,187.781837 360.908553,181.555012 368.589869,181.553631 C376.272565,181.553631 382.499389,187.781837 382.499389,195.464533 C382.499389,203.14723 376.271184,209.374054 368.589869,209.374054 C360.907172,209.374054 354.680348,203.145849 354.680348,195.464533 Z" id="Path"></path>
                    </g>
                </g>
            </g>
            <rect id="Rectangle" x="0" y="0" width="386.759266" height="386.759266"></rect>
        </g>
    </g>
</svg>